<svg id="svg1988" version="1.1" viewBox="0 0 200 200" xmlns="http://www.w3.org/2000/svg"><g id="g1853" transform="translate(-9.11 -14)"><path id="path1344-6-5-2-0" d="m184 126-33.7-29.1" fill="red" stroke="#00f" stroke-width="10"/><path id="path1344-6-5-2" d="M150 97.3 99.2 39.1" fill="red" stroke="#00f" stroke-width="10"/><path id="path1344" d="m36.4 181 91.4-15.4" fill="red" stroke="red" stroke-width="10"/><path id="path1344-9" d="m128 166-34.5-59.5" fill="red" stroke="red" stroke-width="10"/><path id="path1344-9-3" d="m184 126-28.2-79" fill="red" stroke="red" stroke-width="10"/><path id="path1344-8" d="m93.3 107 62.5-59.2" fill="red" stroke="red" stroke-width="10"/><circle id="path1141" cx="35.7" cy="179" r="13.8" fill="#00f"/><circle id="path1141-0" cx="100" cy="40.8" r="13.8" fill="#00f"/><circle id="path1141-0-4" cx="184" cy="126" r="13.8" fill="#00f"/><circle id="path1141-0-6" cx="35.7" cy="39.9" r="13.8" fill="#00f"/><circle id="path1141-0-7" cx="94.1" cy="107" r="13.8" fill="#00f"/><circle id="path1141-0-8" cx="157" cy="46.1" r="13.8" fill="#00f"/><circle id="path1141-0-0" cx="129" cy="165" r="13.8" fill="#00f"/><path id="path1344-6" d="m36.4 181-.68-140" fill="red" stroke="#00f" stroke-width="10"/><path id="path1344-6-6" d="m35.7 41.5 63.7-2.42" fill="red" stroke="#00f" stroke-width="10"/><path id="path1344-6-9" d="M93.3 107 35.7 42" fill="red" stroke="#00f" stroke-width="10"/><path id="path1344-6-5" d="m156 47.3-56.4-8.25" fill="red" stroke="#00f" stroke-width="10"/><circle id="path1141-0-8-3" cx="151" cy="97" r="13.8" fill="#00f"/></g></svg>