<?xml version="1.0" encoding="UTF-8" standalone="no"?>
<svg
   id="svg1988"
   version="1.1"
   viewBox="0 0 200 200"
   sodipodi:docname="favicon.svg"
   inkscape:export-filename="favicon.png"
   inkscape:export-xdpi="30.719999"
   inkscape:export-ydpi="30.719999"
   inkscape:version="1.2 (dc2aeda, 2022-05-15)"
   xmlns:inkscape="http://www.inkscape.org/namespaces/inkscape"
   xmlns:sodipodi="http://sodipodi.sourceforge.net/DTD/sodipodi-0.dtd"
   xmlns="http://www.w3.org/2000/svg"
   xmlns:svg="http://www.w3.org/2000/svg">
  <defs
     id="defs154" />
  <sodipodi:namedview
     id="namedview152"
     pagecolor="#ffffff"
     bordercolor="#666666"
     borderopacity="1.0"
     inkscape:showpageshadow="2"
     inkscape:pageopacity="0.0"
     inkscape:pagecheckerboard="0"
     inkscape:deskcolor="#d1d1d1"
     showgrid="false"
     inkscape:zoom="1.18"
     inkscape:cx="101.69492"
     inkscape:cy="108.05085"
     inkscape:window-width="1343"
     inkscape:window-height="803"
     inkscape:window-x="0"
     inkscape:window-y="23"
     inkscape:window-maximized="0"
     inkscape:current-layer="g1853" />
  <g
     id="g1853"
     transform="translate(-9.11 -14)">
    <path
       id="path1344-6-5-2-0"
       d="m 170.23613,134.44951 -56.15191,-3.86899"
       fill="#ff0000"
       stroke="#0000ff"
       stroke-width="9.99998"
       sodipodi:nodetypes="cc"
       style="stroke-width:20;stroke-dasharray:none" />
    <path
       id="path1344-6-5-2-0-6"
       d="m 167.2707,198.56161 0.62775,-64.88593"
       fill="#ff0000"
       stroke="#0000ff"
       stroke-width="9.99998"
       sodipodi:nodetypes="cc"
       style="stroke-width:20;stroke-dasharray:none" />
    <path
       id="path1344-6-5-2-0-5"
       d="M 176.61742,74.665808 112.92378,34.362422"
       fill="#ff0000"
       stroke="#0000ff"
       stroke-width="9.99998"
       sodipodi:nodetypes="cc"
       style="stroke-width:20;stroke-dasharray:none" />
    <path
       id="path1344-9"
       d="M 76.378923,193.62112 35.142138,116.7792"
       fill="#ff0000"
       stroke="#f00"
       stroke-width="9.99998"
       style="stroke:#0000ff;stroke-width:20;stroke-dasharray:none;stroke-opacity:1"
       sodipodi:nodetypes="cc" />
    <path
       id="path1344-9-3"
       d="m 165.99884,191.22917 -92.405396,1.16381"
       fill="#ff0000"
       stroke="#f00"
       stroke-width="9.99998"
       style="stroke:#0000ff;stroke-width:20;stroke-dasharray:none;stroke-opacity:1"
       sodipodi:nodetypes="cc" />
    <path
       id="path1344-8"
       d="M 34.952212,117.25401 111.2532,35.61223"
       fill="#ff0000"
       stroke="#f00"
       stroke-width="9.99998"
       style="stroke:#0000ff;stroke-width:20;stroke-dasharray:none;stroke-opacity:1"
       sodipodi:nodetypes="cc" />
    <path
       id="path1141-0-4"
       style="fill:#0000ff;fill-opacity:1;stroke:#0000ff;stroke-width:0.953;stroke-dasharray:none;stroke-opacity:1"
       d="m 168.22712,117.0481 c -6.53148,0.0889 -12.88519,3.76403 -16.15383,9.43059 -3.39324,5.71432 -3.49484,13.21705 -0.19316,18.99553 3.15768,5.69977 9.39077,9.54761 15.91255,9.75124 6.83063,0.31007 13.67866,-3.36917 17.13436,-9.28091 3.5377,-5.84218 3.63818,-13.62685 0.0737,-19.48295 -3.19527,-5.54317 -9.34306,-9.21842 -15.7404,-9.40178 -0.34399,-0.008 -0.68898,-0.0138 -1.0332,-0.0117 z" />
    <path
       id="path1141-0-7-8"
       style="fill:#0000ff;fill-opacity:1;stroke:#0000ff;stroke-width:0.953;stroke-dasharray:none;stroke-opacity:1"
       d="m 32.87596,96.640687 c -6.438878,0.25575 -12.632451,3.973113 -15.794922,9.603523 -3.302202,5.71128 -3.347674,13.14688 -0.05134,18.87241 3.210835,5.74876 9.559005,9.5903 16.152277,9.69801 6.767144,0.21034 13.496559,-3.48869 16.899415,-9.35192 3.526384,-5.87948 3.586601,-13.69865 -0.04209,-19.54783 -3.148112,-5.35904 -9.063476,-8.948103 -15.273413,-9.253633 -0.629109,-0.0379 -1.260059,-0.0441 -1.889929,-0.0206 z" />
    <path
       id="path1141-0-7-8-3"
       style="fill:#0000ff;fill-opacity:1;stroke:#0000ff;stroke-width:0.953;stroke-dasharray:none;stroke-opacity:1"
       d="m 112.90393,112.48577 c -6.38103,0.25483 -12.51967,3.90419 -15.708981,9.45117 -3.390081,5.73677 -3.468701,13.26635 -0.12641,19.04322 3.240661,5.80438 9.691481,9.64876 16.346631,9.68395 6.67255,0.13246 13.27261,-3.52249 16.65253,-9.28717 3.54927,-5.86247 3.63773,-13.67479 0.0472,-19.54156 -3.17002,-5.441 -9.18247,-9.08432 -15.47989,-9.33468 -0.57576,-0.03 -1.15469,-0.0354 -1.73105,-0.0149 z" />
    <path
       id="path1141-0-7-8-3-0"
       style="fill:#0000ff;fill-opacity:1;stroke:#0000ff;stroke-width:0.953;stroke-dasharray:none;stroke-opacity:1"
       d="m 165.10563,172.88129 c -6.38103,0.25483 -12.51967,3.90419 -15.70898,9.45117 -3.39009,5.73677 -3.46871,13.26635 -0.12641,19.04322 3.24066,5.80438 9.69148,9.64876 16.34663,9.68395 6.67255,0.13246 13.27261,-3.52249 16.65253,-9.28717 3.54927,-5.86247 3.63773,-13.67479 0.0472,-19.54156 -3.17002,-5.441 -9.18247,-9.08432 -15.47989,-9.33468 -0.57576,-0.03 -1.15469,-0.0354 -1.73105,-0.0149 z" />
    <path
       id="path1141-0-8"
       style="fill:#0000ff;fill-opacity:1;stroke:#0000ff;stroke-width:0.953;stroke-dasharray:none;stroke-opacity:1"
       d="m 111.22666,16.594876 c -6.31483,0.09457 -12.469189,3.522426 -15.818289,8.886981 -3.64356,5.683941 -3.9358,13.328905 -0.68228,19.254294 3.08812,5.813863 9.355529,9.78499 15.942739,10.030579 6.77345,0.355165 13.59092,-3.216142 17.11132,-9.023691 3.70804,-5.919643 3.84493,-13.922327 0.13611,-19.877006 -3.13873,-5.331748 -9.01593,-8.908621 -15.19604,-9.235321 -0.49701,-0.03186 -0.99562,-0.04224 -1.49356,-0.03584 z" />
    <path
       id="path1141-0-8-6"
       style="fill:#0000ff;fill-opacity:1;stroke:#0000ff;stroke-width:0.953;stroke-dasharray:none;stroke-opacity:1"
       d="m 169.65608,47.274563 c -6.3531,0.0936 -12.54046,3.564802 -15.87753,8.981305 -3.58939,5.674639 -3.85773,13.268259 -0.62231,19.161549 3.09199,5.81323 9.35861,9.78571 15.94793,10.02992 6.80402,0.35389 13.64954,-3.25392 17.15569,-9.10598 3.5785,-5.78604 3.77733,-13.52812 0.31419,-19.41445 -3.0949,-5.535789 -9.10601,-9.29776 -15.44637,-9.613458 -0.48937,-0.03788 -0.98114,-0.03526 -1.4716,-0.03889 z" />
    <path
       id="path1141-0-0"
       style="fill:#0000ff;fill-opacity:1;stroke:#0000ff;stroke-width:0.953;stroke-dasharray:none;stroke-opacity:1"
       d="m 75.314585,171.87871 c -6.44856,0.0939 -12.723241,3.67552 -16.027027,9.22459 -3.509853,5.73777 -3.658068,13.3517 -0.316588,19.19883 3.259467,5.91189 9.844205,9.8052 16.601355,9.7709 6.67937,0.0555 13.24278,-3.67477 16.55957,-9.48273 3.44065,-5.84321 3.48328,-13.55436 -0.0732,-19.35807 -3.1891,-5.46905 -9.25249,-9.11716 -15.5855,-9.33232 -0.3854,-0.0219 -0.77264,-0.0198 -1.15864,-0.0212 z" />
  </g>
</svg>
